# xmcd
#
# Track frame offsets:
#	150
#	11470
#	21195
#	30325
#	40367
#	49355
#	59907
#	71795
#	82877
#	93512
#	106882
#	117527
#	129575
#	142115
#	153415
#	165107
#	178152
#	190445
#	202807
#	215610
#	227072
#	238692
#
# Disc length: 3358 seconds
#
# Revision: 1
# Processed by: cddbd v1.5.1PL0 Copyright (c) Steve Scherf et al.
# Submitted via: audiograbber 1.80
#
DISCID=390d1c16
DTITLE=hank locklin - Send Me The Pillow You Dream On cd 1
DYEAR=1900
DGENRE=
TTITLE0=Rio Grande Waltz 
TTITLE1=You've Been Talking In Your Sleep 
TTITLE2=Please Come Back And Stay 
TTITLE3=I've Got A Feeling Somebody's Falling 
TTITLE4=I Worship You 
TTITLE5=You've Been Talking In Your Sleep 
TTITLE6=The Same Sweet Girl 
TTITLE7=The Last Look At Mother 
TTITLE8=One More Mistake 
TTITLE9=Knocking At Your Door 
TTITLE10=Born To Ramble 
TTITLE11=I'm Lonely Darling 
TTITLE12=Send Me The Pillow (You Dream On) 
TTITLE13=Are You Treating Your Neighbor As Yourself 
TTITLE14=Fifty Miles Of Elbow Room 
TTITLE15=Crazy Over You 
TTITLE16=Our Love Will Show The Way 
TTITLE17=Tho I've Lost 
TTITLE18=Midnight Tears 
TTITLE19=It's So Hard To Say I Love You 
TTITLE20=The Place And The Time 
TTITLE21=You Burned A Hole In My Heart 
EXTD=
EXTT0=
EXTT1=
EXTT2=
EXTT3=
EXTT4=
EXTT5=
EXTT6=
EXTT7=
EXTT8=
EXTT9=
EXTT10=
EXTT11=
EXTT12=
EXTT13=
EXTT14=
EXTT15=
EXTT16=
EXTT17=
EXTT18=
EXTT19=
EXTT20=
EXTT21=
PLAYORDER=
